<?xml version="1.0" encoding="iso-8859-1"?>
<!-- Uploaded to: SVG Repo, www.svgrepo.com, Generator: SVG Repo Mixer Tools -->
<svg fill="#000000" height="800px" width="800px" version="1.1" id="Layer_1" xmlns="http://www.w3.org/2000/svg" xmlns:xlink="http://www.w3.org/1999/xlink" 
	 viewBox="0 0 512 512" xml:space="preserve">
<g>
	<g>
		<path d="M494.006,184.207l-48.899-40.876V38.953c0-9.22-7.364-16.584-16.584-16.584H361.74c-9.22,0-16.696,7.364-16.696,16.584
			v20.449l-56.95-47.715c-18.597-15.583-45.59-15.582-64.186-0.001L18.019,184.187c-21.054,17.573-24.22,49.074-6.333,70.506
			c14.79,17.666,39.849,23.18,60.662,12.742v13.697c-19.433,6.892-33.391,25.45-33.391,47.215c0,21.766,13.959,40.323,33.391,47.215
			v39.135c-19.433,6.892-33.391,25.45-33.391,47.215c0,27.618,22.469,50.087,50.087,50.087h333.914
			c27.618,0,50.087-22.469,50.087-50.087c0-21.766-13.959-40.323-33.391-47.215v-39.135c19.433-6.892,33.391-25.45,33.391-47.215
			s-14.07-40.323-33.503-47.215v-13.737c20.321,10.076,45.754,5.378,60.79-12.722C518.037,233.461,515.228,201.941,494.006,184.207z
			 M378.324,55.649h33.503v59.706l-33.503-27.976V55.649z M189.218,478.72H89.043c-9.206,0-16.696-7.601-16.696-16.807
			s7.49-16.696,16.696-16.696h100.174V478.72z M189.218,411.937h-83.59v-33.503h83.59V411.937z M289.392,478.717h-66.894V378.434
			h66.894V478.717z M422.957,478.72H322.672v-33.503h100.285c9.206,0,16.696,7.49,16.696,16.696S432.163,478.72,422.957,478.72z
			 M322.672,411.937v-33.503h83.59v33.503H322.672z M439.653,328.347c0,9.206-7.49,16.807-16.696,16.807
			c-12.51,0-308.795,0-333.914,0c-9.206,0-16.696-7.601-16.696-16.807s7.49-16.696,16.696-16.696h333.914
			C432.163,311.651,439.653,319.141,439.653,328.347z M256,155.823c-27.618,0-50.087,22.469-50.087,50.087v5.677h-64.598
			c39.021-32.691,87.686-73.578,114.686-96.202c8.194,6.865,111.779,93.764,114.688,96.202h-64.714v-5.677
			C305.976,178.291,283.618,155.823,256,155.823z M272.696,205.91v5.677h-33.503v-5.677c0-9.206,7.601-16.696,16.807-16.696
			C265.206,189.214,272.696,196.704,272.696,205.91z M406.262,244.866v33.505H105.628v-33.505
			C110.227,244.866,401.863,244.866,406.262,244.866z M474.671,233.306c-5.935,7.141-16.245,8.042-23.411,2.099
			c-33.153-27.756-18.467-15.456-184.54-154.599c-6.203-5.198-15.242-5.197-21.445,0.001
			c-2.895,2.424-177.888,149.056-184.477,154.549c-8.037,6.663-18.265,4.166-23.494-2.079c-5.869-7.032-4.992-17.528,2.134-23.474
			L245.352,37.28c6.17-5.17,15.126-5.169,21.296,0.001l205.914,172.522c0.008,0.007,0.017,0.013,0.024,0.021
			C479.582,215.661,480.653,226.138,474.671,233.306z"/>
	</g>
</g>
</svg>